<svg xmlns="http://www.w3.org/2000/svg" xmlns:xlink="http://www.w3.org/1999/xlink" version="1.1" x="0px" y="0px" viewBox="0 0 100 100" style="enable-background:new 0 0 100 100;" xml:space="preserve"><path d="M88.546196,30.7326775l-0.0465851-0.1446037l-15.972435-18.5646343L50,5.9874334l-22.5266895,6.036006  L11.5003881,30.5880737L5,50.9641418l6.0330944,22.516983l16.4935951,16.4926224L50,93.9974289l22.473793-4.0236816  l16.3519058-16.3518982l0.1416931-0.1407242L95,50.9641418L88.546196,30.7326775z M37.2971649,43.9338608h25.4056702L50,65.9364853  L37.2971649,43.9338608z M37.1753693,42.4431801L50,24.217247l12.8246307,18.2259331H37.1753693z M51.3963623,23.6133556  l22.4167786-0.8788452l-9.8069916,18.8172665L51.3963623,23.6133556z M35.9876022,41.5406151l-9.8003197-18.8061657  l22.4164772,0.8767834L35.9876022,41.5406151z M34.7995911,42.4863663l-21.3164177,0.7745781L24.899189,23.4882832  L34.7995911,42.4863663z M48.9561691,67.1096954l-22.0734043-2.7735596l9.1116924-19.6769485L48.9561691,67.1096954z   M61.3884773,86.7274399H38.6115227L50,69.3516617L61.3884773,86.7274399z M64.0053635,44.6587029l9.1118698,19.677433  l-22.0734024,2.7735596L64.0053635,44.6587029z M75.1014786,23.4877968l11.4151077,19.7730865l-21.3166656-0.7745171  L75.1014786,23.4877968z M50.7453423,22.1491184V8.3165655l21.7855339,12.9767561L50.7453423,22.1491184z M49.2546577,22.1469345  l-21.7809219-0.8536739L49.2546577,8.3166866V22.1469345z M12.9095497,41.2729416v-9.9278793l9.6815548-6.8410339  L12.9095497,41.2729416z M34.6771278,43.9826279L25.667944,63.4147072L13.5082245,44.7516861L34.6771278,43.9826279z   M48.7216148,68.5825424L37.3129959,85.9887695L27.074255,65.8626022L48.7216148,68.5825424z M59.1665268,88.2181244L50,92.1826019  l-9.1767159-3.9644775H59.1665268z M51.2783279,68.5825424l21.6425629-2.7192078l-10.2346153,20.125679L51.2783279,68.5825424z   M65.3354263,43.9831161l21.1567764,0.768631l-12.156929,18.6653862L65.3354263,43.9831161z M77.4108353,24.5073643  l9.6796188,6.8381824v9.9273949L77.4108353,24.5073643z M75.7034302,21.4784451l-1.7660599-5.5297098l9.3911285,10.9147539  L75.7034302,21.4784451z M73.7589188,20.2918911L54.250351,8.6694622l17.2749634,4.6289673L73.7589188,20.2918911z   M26.2398701,20.2952881l2.2343884-6.9968586l17.276844-4.6293917L26.2398701,20.2952881z M24.2987556,21.4745026  l-7.6254978,5.3868027l9.3907108-10.9145718L24.2987556,21.4745026z M11.4188662,43.7637215L7.5085526,48.004673  l3.9103136-12.2570724V43.7637215z M24.7280178,64.6947327l-12.0574532,6.9778748l0.2175732-25.1420593L24.7280178,64.6947327z   M25.4703274,65.9878616l9.9656696,19.5979691L13.408082,72.9684601L25.4703274,65.9878616z M37.1469803,88.2483902  l7.6299286,3.2998123l-12.8185062-2.2952881L37.1469803,88.2483902z M62.8439217,88.2466888l5.1973763,1.0062256  l-12.8268166,2.2967987L62.8439217,88.2466888z M74.5260925,65.9857941l12.0657043,6.9828491L64.5597,85.5923233  L74.5260925,65.9857941z M75.2758636,64.6964264L87.1118622,46.531517l0.2175751,25.1407852L75.2758636,64.6964264z   M88.581131,43.763237v-8.0156364l3.9100723,12.2562828L88.581131,43.763237z M6.6024723,51.1859627l4.7996531-5.2054443  L11.2082081,68.374794L6.6024723,51.1859627z M15.6034069,75.9425507l19.5231838,11.1786041l-6.9910374,1.3535385  L15.6034069,75.9425507z M71.8640213,88.4746323l-6.9850311-1.3523254l19.5142059-11.1768494L71.8640213,88.4746323z   M88.7917328,68.3733978l-0.1939163-22.392395l4.7995911,5.2053833L88.7917328,68.3733978z"/></svg>
